<mxfile host="app.diagrams.net" modified="2024-02-13T09:54:12.625Z" agent="Mozilla/5.0 (Windows NT 10.0; Win64; x64) AppleWebKit/537.36 (KHTML, like Gecko) Chrome/121.0.0.0 Safari/537.36" etag="XYv9jCPOkaI_sjIei-Uk" version="22.1.21" type="device">
  <diagram name="Seite-1" id="9hPRV_U0AHYDVjbQgrEr">
    <mxGraphModel dx="2074" dy="1098" grid="1" gridSize="10" guides="1" tooltips="1" connect="1" arrows="1" fold="1" page="1" pageScale="1" pageWidth="827" pageHeight="1169" math="0" shadow="0">
      <root>
        <mxCell id="0" />
        <mxCell id="1" parent="0" />
        <mxCell id="YSClbuh2iXVkGuryijyx-43" value="" style="rounded=1;whiteSpace=wrap;html=1;align=left;dashed=1;fillColor=#f5f5f5;fontColor=#333333;strokeColor=#666666;" parent="1" vertex="1">
          <mxGeometry x="280" y="124" width="290" height="590" as="geometry" />
        </mxCell>
        <mxCell id="YSClbuh2iXVkGuryijyx-8" style="edgeStyle=orthogonalEdgeStyle;rounded=0;orthogonalLoop=1;jettySize=auto;html=1;exitX=1;exitY=0.5;exitDx=0;exitDy=0;" parent="1" source="zsDgU3BeLq6TPiqN6s2s-1" edge="1">
          <mxGeometry relative="1" as="geometry">
            <mxPoint x="500" y="437" as="targetPoint" />
          </mxGeometry>
        </mxCell>
        <mxCell id="YSClbuh2iXVkGuryijyx-30" value="Data:&lt;br&gt;Read: Float" style="edgeLabel;html=1;align=center;verticalAlign=middle;resizable=0;points=[];" parent="YSClbuh2iXVkGuryijyx-8" vertex="1" connectable="0">
          <mxGeometry x="-0.4465" y="2" relative="1" as="geometry">
            <mxPoint x="71" y="2" as="offset" />
          </mxGeometry>
        </mxCell>
        <mxCell id="zsDgU3BeLq6TPiqN6s2s-1" value="ESP32 Brake" style="rounded=1;whiteSpace=wrap;html=1;fillColor=#fff2cc;strokeColor=#d6b656;" parent="1" vertex="1">
          <mxGeometry x="60" y="334.25" width="120" height="60" as="geometry" />
        </mxCell>
        <mxCell id="YSClbuh2iXVkGuryijyx-11" style="edgeStyle=orthogonalEdgeStyle;rounded=0;orthogonalLoop=1;jettySize=auto;html=1;exitX=1;exitY=0.5;exitDx=0;exitDy=0;entryX=0.5;entryY=0;entryDx=0;entryDy=0;" parent="1" edge="1">
          <mxGeometry relative="1" as="geometry">
            <mxPoint x="501" y="438" as="targetPoint" />
            <mxPoint x="181" y="265" as="sourcePoint" />
          </mxGeometry>
        </mxCell>
        <mxCell id="YSClbuh2iXVkGuryijyx-29" value="Data:&lt;br&gt;Read: Float" style="edgeLabel;html=1;align=center;verticalAlign=middle;resizable=0;points=[];" parent="YSClbuh2iXVkGuryijyx-11" vertex="1" connectable="0">
          <mxGeometry x="-0.2844" y="-2" relative="1" as="geometry">
            <mxPoint x="3" y="-3" as="offset" />
          </mxGeometry>
        </mxCell>
        <mxCell id="zsDgU3BeLq6TPiqN6s2s-2" value="ESP32 BNO055" style="rounded=1;whiteSpace=wrap;html=1;fillColor=#fff2cc;strokeColor=#d6b656;" parent="1" vertex="1">
          <mxGeometry x="60" y="234" width="120" height="60" as="geometry" />
        </mxCell>
        <mxCell id="YSClbuh2iXVkGuryijyx-12" style="edgeStyle=orthogonalEdgeStyle;rounded=0;orthogonalLoop=1;jettySize=auto;html=1;exitX=1;exitY=0.5;exitDx=0;exitDy=0;entryX=0;entryY=0.5;entryDx=0;entryDy=0;startArrow=classic;startFill=1;" parent="1" source="zsDgU3BeLq6TPiqN6s2s-3" target="zsDgU3BeLq6TPiqN6s2s-10" edge="1">
          <mxGeometry relative="1" as="geometry" />
        </mxCell>
        <mxCell id="YSClbuh2iXVkGuryijyx-28" value="Data:&amp;nbsp;&lt;br&gt;Read: Int" style="edgeLabel;html=1;align=center;verticalAlign=middle;resizable=0;points=[];" parent="YSClbuh2iXVkGuryijyx-12" vertex="1" connectable="0">
          <mxGeometry x="-0.1363" y="-2" relative="1" as="geometry">
            <mxPoint x="68" y="-2" as="offset" />
          </mxGeometry>
        </mxCell>
        <mxCell id="zsDgU3BeLq6TPiqN6s2s-3" value="Elite Rizer" style="rounded=1;whiteSpace=wrap;html=1;fillColor=#fff2cc;strokeColor=#d6b656;" parent="1" vertex="1">
          <mxGeometry x="60" y="434" width="120" height="60" as="geometry" />
        </mxCell>
        <mxCell id="zsDgU3BeLq6TPiqN6s2s-6" value="" style="html=1;verticalLabelPosition=bottom;align=center;labelBackgroundColor=#ffffff;verticalAlign=top;strokeWidth=2;strokeColor=#0080F0;shadow=0;dashed=0;shape=mxgraph.ios7.icons.bluetooth;pointerEvents=1" parent="1" vertex="1">
          <mxGeometry x="205.65" y="449.59999999999997" width="15" height="28.799999999999997" as="geometry" />
        </mxCell>
        <mxCell id="zsDgU3BeLq6TPiqN6s2s-7" value="" style="html=1;verticalLabelPosition=bottom;align=center;labelBackgroundColor=#ffffff;verticalAlign=top;strokeWidth=2;strokeColor=#0080F0;shadow=0;dashed=0;shape=mxgraph.ios7.icons.wifi;pointerEvents=1" parent="1" vertex="1">
          <mxGeometry x="198.3" y="253.5" width="29.7" height="21" as="geometry" />
        </mxCell>
        <mxCell id="zsDgU3BeLq6TPiqN6s2s-8" value="DiretoXR" style="rounded=1;whiteSpace=wrap;html=1;fillColor=#fff2cc;strokeColor=#d6b656;" parent="1" vertex="1">
          <mxGeometry x="60" y="534" width="120" height="60" as="geometry" />
        </mxCell>
        <mxCell id="YSClbuh2iXVkGuryijyx-7" style="edgeStyle=orthogonalEdgeStyle;rounded=0;orthogonalLoop=1;jettySize=auto;html=1;exitX=1;exitY=0.5;exitDx=0;exitDy=0;" parent="1" edge="1">
          <mxGeometry relative="1" as="geometry">
            <mxPoint x="500" y="437" as="targetPoint" />
            <mxPoint x="180" y="164" as="sourcePoint" />
          </mxGeometry>
        </mxCell>
        <mxCell id="YSClbuh2iXVkGuryijyx-31" value="Data:&lt;br&gt;Read: Int" style="edgeLabel;html=1;align=center;verticalAlign=middle;resizable=0;points=[];" parent="YSClbuh2iXVkGuryijyx-7" vertex="1" connectable="0">
          <mxGeometry x="-0.537" y="2" relative="1" as="geometry">
            <mxPoint x="43" y="2" as="offset" />
          </mxGeometry>
        </mxCell>
        <mxCell id="zsDgU3BeLq6TPiqN6s2s-9" value="ESP32 Roll" style="rounded=1;whiteSpace=wrap;html=1;fillColor=#fff2cc;strokeColor=#d6b656;" parent="1" vertex="1">
          <mxGeometry x="60" y="134" width="120" height="60" as="geometry" />
        </mxCell>
        <mxCell id="YSClbuh2iXVkGuryijyx-5" style="edgeStyle=orthogonalEdgeStyle;rounded=0;orthogonalLoop=1;jettySize=auto;html=1;exitX=1;exitY=0.5;exitDx=0;exitDy=0;startArrow=classic;startFill=1;" parent="1" source="zsDgU3BeLq6TPiqN6s2s-10" target="zsDgU3BeLq6TPiqN6s2s-13" edge="1">
          <mxGeometry relative="1" as="geometry" />
        </mxCell>
        <mxCell id="zsDgU3BeLq6TPiqN6s2s-10" value="Manager Script" style="rounded=1;whiteSpace=wrap;html=1;fillColor=#dae8fc;strokeColor=#6c8ebf;" parent="1" vertex="1">
          <mxGeometry x="440" y="434" width="120" height="60" as="geometry" />
        </mxCell>
        <mxCell id="zsDgU3BeLq6TPiqN6s2s-13" value="Scriptable Obj&lt;br&gt;&lt;br&gt;Logging&lt;br&gt;Simulation" style="rounded=1;whiteSpace=wrap;html=1;fillColor=#fff2cc;strokeColor=#d6b656;" parent="1" vertex="1">
          <mxGeometry x="675" y="278.55" width="300" height="370.9" as="geometry" />
        </mxCell>
        <mxCell id="zsDgU3BeLq6TPiqN6s2s-12" value="" style="fontColor=#0066CC;verticalAlign=top;verticalLabelPosition=bottom;labelPosition=center;align=center;html=1;outlineConnect=0;fillColor=#CCCCCC;strokeColor=#6881B3;gradientColor=none;gradientDirection=north;strokeWidth=2;shape=mxgraph.networks.pc;" parent="1" vertex="1">
          <mxGeometry x="785" y="294.45000000000005" width="80" height="65" as="geometry" />
        </mxCell>
        <mxCell id="YSClbuh2iXVkGuryijyx-14" style="edgeStyle=orthogonalEdgeStyle;rounded=0;orthogonalLoop=1;jettySize=auto;html=1;exitX=1;exitY=0.5;exitDx=0;exitDy=0;startArrow=classic;startFill=1;endArrow=none;endFill=0;entryX=0.5;entryY=1;entryDx=0;entryDy=0;" parent="1" source="zsDgU3BeLq6TPiqN6s2s-18" target="zsDgU3BeLq6TPiqN6s2s-10" edge="1">
          <mxGeometry relative="1" as="geometry">
            <mxPoint x="440" y="554" as="targetPoint" />
          </mxGeometry>
        </mxCell>
        <mxCell id="YSClbuh2iXVkGuryijyx-17" value="Data:&lt;br&gt;Write: Int" style="edgeLabel;html=1;align=center;verticalAlign=middle;resizable=0;points=[];" parent="YSClbuh2iXVkGuryijyx-14" vertex="1" connectable="0">
          <mxGeometry x="0.5402" y="-4" relative="1" as="geometry">
            <mxPoint x="-144" y="61" as="offset" />
          </mxGeometry>
        </mxCell>
        <mxCell id="zsDgU3BeLq6TPiqN6s2s-18" value="Kickr Headwind" style="rounded=1;whiteSpace=wrap;html=1;fillColor=#fff2cc;strokeColor=#d6b656;" parent="1" vertex="1">
          <mxGeometry x="60" y="638.5" width="120" height="60" as="geometry" />
        </mxCell>
        <mxCell id="YSClbuh2iXVkGuryijyx-1" value="" style="html=1;verticalLabelPosition=bottom;align=center;labelBackgroundColor=#ffffff;verticalAlign=top;strokeWidth=2;strokeColor=#0080F0;shadow=0;dashed=0;shape=mxgraph.ios7.icons.wifi;pointerEvents=1" parent="1" vertex="1">
          <mxGeometry x="198.3" y="354" width="29.7" height="20.5" as="geometry" />
        </mxCell>
        <mxCell id="YSClbuh2iXVkGuryijyx-45" value="" style="shape=image;html=1;verticalAlign=top;verticalLabelPosition=bottom;labelBackgroundColor=#ffffff;imageAspect=0;aspect=fixed;image=https://cdn1.iconfinder.com/data/icons/fruit-136/64/Fruit_iconfree_Filled_Outline_raspberry-healthy-organic-food-fruit_icon-128.png" parent="1" vertex="1">
          <mxGeometry x="470" y="83" width="40" height="40" as="geometry" />
        </mxCell>
        <mxCell id="YSClbuh2iXVkGuryijyx-2" value="" style="html=1;verticalLabelPosition=bottom;align=center;labelBackgroundColor=#ffffff;verticalAlign=top;strokeWidth=2;strokeColor=#0080F0;shadow=0;dashed=0;shape=mxgraph.ios7.icons.wifi;pointerEvents=1" parent="1" vertex="1">
          <mxGeometry x="198.3" y="153.5" width="29.7" height="21" as="geometry" />
        </mxCell>
        <mxCell id="YSClbuh2iXVkGuryijyx-3" value="" style="html=1;verticalLabelPosition=bottom;align=center;labelBackgroundColor=#ffffff;verticalAlign=top;strokeWidth=2;strokeColor=#0080F0;shadow=0;dashed=0;shape=mxgraph.ios7.icons.bluetooth;pointerEvents=1" parent="1" vertex="1">
          <mxGeometry x="205.65" y="654.1" width="15" height="28.799999999999997" as="geometry" />
        </mxCell>
        <mxCell id="YSClbuh2iXVkGuryijyx-15" value="" style="edgeStyle=orthogonalEdgeStyle;rounded=0;orthogonalLoop=1;jettySize=auto;html=1;" parent="1" source="YSClbuh2iXVkGuryijyx-4" target="zsDgU3BeLq6TPiqN6s2s-8" edge="1">
          <mxGeometry relative="1" as="geometry" />
        </mxCell>
        <mxCell id="YSClbuh2iXVkGuryijyx-16" style="edgeStyle=orthogonalEdgeStyle;rounded=0;orthogonalLoop=1;jettySize=auto;html=1;entryX=0.25;entryY=1;entryDx=0;entryDy=0;" parent="1" source="YSClbuh2iXVkGuryijyx-4" target="zsDgU3BeLq6TPiqN6s2s-10" edge="1">
          <mxGeometry relative="1" as="geometry">
            <Array as="points">
              <mxPoint x="470" y="564" />
            </Array>
          </mxGeometry>
        </mxCell>
        <mxCell id="YSClbuh2iXVkGuryijyx-18" value="Data:&lt;br&gt;Read: Float&lt;br&gt;Write: Int" style="edgeLabel;html=1;align=center;verticalAlign=middle;resizable=0;points=[];" parent="YSClbuh2iXVkGuryijyx-16" vertex="1" connectable="0">
          <mxGeometry x="-0.3756" y="1" relative="1" as="geometry">
            <mxPoint x="39" y="1" as="offset" />
          </mxGeometry>
        </mxCell>
        <mxCell id="YSClbuh2iXVkGuryijyx-4" value="" style="html=1;verticalLabelPosition=bottom;align=center;labelBackgroundColor=#ffffff;verticalAlign=top;strokeWidth=2;strokeColor=#0080F0;shadow=0;dashed=0;shape=mxgraph.ios7.icons.bluetooth;pointerEvents=1" parent="1" vertex="1">
          <mxGeometry x="205.65" y="549.6" width="15" height="28.799999999999997" as="geometry" />
        </mxCell>
        <mxCell id="YSClbuh2iXVkGuryijyx-22" value="" style="edgeStyle=orthogonalEdgeStyle;rounded=0;orthogonalLoop=1;jettySize=auto;html=1;" parent="1" source="YSClbuh2iXVkGuryijyx-20" edge="1">
          <mxGeometry relative="1" as="geometry">
            <mxPoint x="784.6999999999998" y="164" as="targetPoint" />
          </mxGeometry>
        </mxCell>
        <mxCell id="YSClbuh2iXVkGuryijyx-23" value="WiFi&amp;nbsp;" style="edgeLabel;html=1;align=center;verticalAlign=middle;resizable=0;points=[];" parent="YSClbuh2iXVkGuryijyx-22" vertex="1" connectable="0">
          <mxGeometry x="-0.0388" y="3" relative="1" as="geometry">
            <mxPoint x="-3" y="3" as="offset" />
          </mxGeometry>
        </mxCell>
        <mxCell id="YSClbuh2iXVkGuryijyx-20" value="" style="html=1;verticalLabelPosition=bottom;align=center;labelBackgroundColor=#ffffff;verticalAlign=top;strokeWidth=2;strokeColor=#0080F0;shadow=0;dashed=0;shape=mxgraph.ios7.icons.wifi;pointerEvents=1" parent="1" vertex="1">
          <mxGeometry x="675" y="153.5" width="29.7" height="21" as="geometry" />
        </mxCell>
        <mxCell id="YSClbuh2iXVkGuryijyx-26" value="" style="edgeStyle=orthogonalEdgeStyle;rounded=0;orthogonalLoop=1;jettySize=auto;html=1;" parent="1" source="YSClbuh2iXVkGuryijyx-24" edge="1">
          <mxGeometry relative="1" as="geometry">
            <mxPoint x="777.3499999999997" y="208.39999999999998" as="targetPoint" />
          </mxGeometry>
        </mxCell>
        <mxCell id="YSClbuh2iXVkGuryijyx-27" value="BLE" style="edgeLabel;html=1;align=center;verticalAlign=middle;resizable=0;points=[];" parent="YSClbuh2iXVkGuryijyx-26" vertex="1" connectable="0">
          <mxGeometry x="-0.2496" y="-4" relative="1" as="geometry">
            <mxPoint x="3" y="-4" as="offset" />
          </mxGeometry>
        </mxCell>
        <mxCell id="YSClbuh2iXVkGuryijyx-24" value="" style="html=1;verticalLabelPosition=bottom;align=center;labelBackgroundColor=#ffffff;verticalAlign=top;strokeWidth=2;strokeColor=#0080F0;shadow=0;dashed=0;shape=mxgraph.ios7.icons.bluetooth;pointerEvents=1" parent="1" vertex="1">
          <mxGeometry x="682.35" y="193.99999999999994" width="15" height="28.799999999999997" as="geometry" />
        </mxCell>
        <mxCell id="YSClbuh2iXVkGuryijyx-32" value="Unity" style="text;html=1;strokeColor=none;fillColor=none;align=center;verticalAlign=middle;whiteSpace=wrap;rounded=0;" parent="1" vertex="1">
          <mxGeometry x="802" y="303.95" width="60" height="30" as="geometry" />
        </mxCell>
        <mxCell id="YSClbuh2iXVkGuryijyx-33" value="Ethernet" style="pointerEvents=1;shadow=0;dashed=0;html=1;strokeColor=none;fillColor=#000000;aspect=fixed;labelPosition=center;verticalLabelPosition=bottom;verticalAlign=top;align=center;outlineConnect=0;shape=mxgraph.vvd.ethernet_port;fillStyle=auto;" parent="1" vertex="1">
          <mxGeometry x="610" y="467" width="27" height="27" as="geometry" />
        </mxCell>
        <mxCell id="hfKAB7z6sPMPRp2fFnST-1" value="UDP Socket" style="text;html=1;strokeColor=none;fillColor=none;align=center;verticalAlign=middle;whiteSpace=wrap;rounded=0;" parent="1" vertex="1">
          <mxGeometry x="593.5" y="424" width="60" height="30" as="geometry" />
        </mxCell>
        <mxCell id="EzGjLVX33Qa4sHPatN-D-1" value="&lt;font style=&quot;font-size: 24px;&quot;&gt;Raspberry Pi&lt;/font&gt;" style="text;html=1;strokeColor=none;fillColor=none;align=center;verticalAlign=middle;whiteSpace=wrap;rounded=0;" vertex="1" parent="1">
          <mxGeometry x="300" y="90" width="170" height="30" as="geometry" />
        </mxCell>
      </root>
    </mxGraphModel>
  </diagram>
</mxfile>
